<?xml version="1.0" standalone="no"?>
<!DOCTYPE svg PUBLIC "-//W3C//DTD SVG 20010904//EN"
 "http://www.w3.org/TR/2001/REC-SVG-20010904/DTD/svg10.dtd">
<svg version="1.0" xmlns="http://www.w3.org/2000/svg"
 width="685.000000pt" height="685.000000pt" viewBox="0 0 685.000000 685.000000"
 preserveAspectRatio="xMidYMid meet">

<g transform="translate(0.000000,685.000000) scale(0.100000,-0.100000)"
fill="#000000" stroke="none">
<path d="M3660 4975 c-348 -43 -642 -163 -920 -375 -87 -66 -201 -167 -213
-187 -10 -17 1 -12 184 75 372 178 642 248 989 259 588 19 1168 -173 1802
-594 113 -75 238 -187 238 -213 0 -31 -89 -141 -219 -270 -257 -254 -435 -385
-722 -530 -282 -143 -416 -190 -589 -210 -149 -18 -814 -8 -945 14 -368 61
-629 179 -1140 515 -292 192 -589 325 -852 381 -144 31 -370 38 -503 15 -166
-27 -316 -81 -307 -109 3 -7 62 -10 178 -8 190 4 309 -6 496 -44 316 -63 524
-164 1078 -524 551 -359 754 -453 1165 -544 214 -47 340 -60 570 -60 231 0
337 12 539 61 334 81 727 278 1021 513 311 248 770 745 770 833 0 33 -46 84
-153 169 -196 156 -564 385 -787 490 -577 272 -1209 401 -1680 343z"/>
<path d="M3734 4695 c-102 -30 -180 -64 -241 -106 -391 -265 -445 -796 -113
-1102 271 -249 643 -275 927 -64 112 83 206 228 243 373 38 148 21 411 -33
508 -33 59 -50 65 -100 37 -132 -76 -179 -86 -244 -53 -44 23 -99 80 -115 121
-6 16 -7 69 -3 138 l7 111 -26 18 c-33 21 -128 44 -181 43 -22 0 -77 -11 -121
-24z m431 -699 c116 -49 34 -213 -91 -182 -88 22 -100 140 -19 184 28 16 69
15 110 -2z"/>
</g>
</svg>
